<svg width="288" height="64" viewBox="0 0 288 64" fill="none" xmlns="http://www.w3.org/2000/svg">
<g clip-path="url(#clip0_1_2)">
<g filter="url(#filter0_d_1_2)">
<path d="M33.5455 55H17.0455V8.45454H33.6818C38.3636 8.45454 42.3939 9.38636 45.7727 11.25C49.1515 13.0985 51.75 15.7576 53.5682 19.2273C55.4015 22.697 56.3182 26.8485 56.3182 31.6818C56.3182 36.5303 55.4015 40.697 53.5682 44.1818C51.75 47.6667 49.1364 50.3409 45.7273 52.2045C42.3333 54.0682 38.2727 55 33.5455 55ZM26.8864 46.5682H33.1364C36.0455 46.5682 38.4924 46.053 40.4773 45.0227C42.4773 43.9773 43.9773 42.3636 44.9773 40.1818C45.9924 37.9848 46.5 35.1515 46.5 31.6818C46.5 28.2424 45.9924 25.4318 44.9773 23.25C43.9773 21.0682 42.4848 19.4621 40.5 18.4318C38.5152 17.4015 36.0682 16.8864 33.1591 16.8864H26.8864V46.5682ZM79.3352 55.6818C75.7443 55.6818 72.6534 54.9545 70.0625 53.5C67.4867 52.0303 65.5019 49.9545 64.108 47.2727C62.714 44.5758 62.017 41.3864 62.017 37.7045C62.017 34.1136 62.714 30.9621 64.108 28.25C65.5019 25.5379 67.464 23.4242 69.9943 21.9091C72.5398 20.3939 75.5246 19.6364 78.9489 19.6364C81.2519 19.6364 83.3958 20.0076 85.3807 20.75C87.3807 21.4773 89.1231 22.5758 90.608 24.0455C92.108 25.5152 93.2746 27.3636 94.108 29.5909C94.9413 31.803 95.358 34.3939 95.358 37.3636V40.0227H65.8807V34.0227H86.2443C86.2443 32.6288 85.9413 31.3939 85.3352 30.3182C84.7292 29.2424 83.8883 28.4015 82.8125 27.7955C81.7519 27.1742 80.517 26.8636 79.108 26.8636C77.6383 26.8636 76.3352 27.2045 75.1989 27.8864C74.0777 28.553 73.1989 29.4545 72.5625 30.5909C71.9261 31.7121 71.6004 32.9621 71.5852 34.3409V40.0455C71.5852 41.7727 71.9034 43.2652 72.5398 44.5227C73.1913 45.7803 74.108 46.75 75.2898 47.4318C76.4716 48.1136 77.8731 48.4545 79.4943 48.4545C80.5701 48.4545 81.5549 48.303 82.4489 48C83.3428 47.697 84.108 47.2424 84.7443 46.6364C85.3807 46.0303 85.8655 45.2879 86.1989 44.4091L95.1534 45C94.6989 47.1515 93.767 49.0303 92.358 50.6364C90.964 52.2273 89.161 53.4697 86.9489 54.3636C84.7519 55.2424 82.214 55.6818 79.3352 55.6818ZM133.284 20.0909L121.08 55H110.17L97.9659 20.0909H108.193L115.443 45.0682H115.807L123.034 20.0909H133.284Z" fill="white"/>
</g>
<g filter="url(#filter1_d_1_2)">
<path d="M151.907 39.7739H141.499V33.2091H151.907C153.516 33.2091 154.825 32.9473 155.835 32.4236C156.845 31.8812 157.583 31.1331 158.051 30.1793C158.519 29.2254 158.752 28.15 158.752 26.953C158.752 25.7373 158.519 24.6058 158.051 23.5584C157.583 22.5111 156.845 21.6694 155.835 21.0335C154.825 20.3976 153.516 20.0797 151.907 20.0797H144.417V54.3341H136V13.4869H151.907C155.105 13.4869 157.845 14.0667 160.127 15.2263C162.428 16.3672 164.186 17.9476 165.401 19.9675C166.617 21.9874 167.225 24.2972 167.225 26.8969C167.225 29.534 166.617 31.8158 165.401 33.7422C164.186 35.6686 162.428 37.1554 160.127 38.2028C157.845 39.2502 155.105 39.7739 151.907 39.7739ZM181.056 23.9792V54.3341H172.948V23.9792H181.056ZM172.443 16.0679C172.443 14.8896 172.854 13.9171 173.677 13.1503C174.5 12.3834 175.604 12 176.988 12C178.353 12 179.447 12.3834 180.27 13.1503C181.112 13.9171 181.533 14.8896 181.533 16.0679C181.533 17.2462 181.112 18.2187 180.27 18.9856C179.447 19.7524 178.353 20.1358 176.988 20.1358C175.604 20.1358 174.5 19.7524 173.677 18.9856C172.854 18.2187 172.443 17.2462 172.443 16.0679ZM211.887 48.0218V54.3341H188.827V48.0218H211.887ZM211.439 28.6363L192.081 54.3341H186.666V49.5368L205.94 23.9792H211.439V28.6363ZM208.577 23.9792V30.3195H187.115V23.9792H208.577ZM241.12 48.0218V54.3341H218.059V48.0218H241.12ZM240.671 28.6363L221.314 54.3341H215.899V49.5368L235.173 23.9792H240.671V28.6363ZM237.81 23.9792V30.3195H216.348V23.9792H237.81ZM262.582 47.4888V33.9666C262.582 32.9941 262.423 32.1618 262.105 31.4698C261.787 30.7591 261.291 30.2073 260.618 29.8146C259.963 29.4218 259.112 29.2254 258.065 29.2254C257.167 29.2254 256.391 29.3844 255.736 29.7023C255.082 30.0016 254.577 30.4411 254.221 31.0209C253.866 31.582 253.688 32.2459 253.688 33.0128H245.609C245.609 31.7223 245.908 30.4972 246.506 29.3376C247.105 28.178 247.975 27.1587 249.116 26.2797C250.256 25.382 251.612 24.6806 253.183 24.1756C254.773 23.6706 256.55 23.4182 258.514 23.4182C260.87 23.4182 262.965 23.8109 264.798 24.5964C266.631 25.382 268.071 26.5602 269.118 28.1313C270.184 29.7023 270.717 31.6661 270.717 34.0227V47.0119C270.717 48.6764 270.82 50.0418 271.026 51.1078C271.232 52.1552 271.531 53.0716 271.924 53.8572V54.3341H263.76C263.367 53.5111 263.068 52.4825 262.862 51.2481C262.675 49.995 262.582 48.7419 262.582 47.4888ZM263.648 35.8462L263.704 40.4191H259.187C258.121 40.4191 257.195 40.5407 256.41 40.7838C255.624 41.027 254.979 41.373 254.474 41.8218C253.969 42.252 253.595 42.757 253.352 43.3368C253.127 43.9166 253.015 44.5525 253.015 45.2445C253.015 45.9365 253.174 46.563 253.492 47.1241C253.81 47.6665 254.268 48.0967 254.867 48.4146C255.465 48.7139 256.167 48.8635 256.971 48.8635C258.186 48.8635 259.243 48.6203 260.141 48.1341C261.039 47.6478 261.731 47.0493 262.217 46.3386C262.722 45.6279 262.984 44.9546 263.002 44.3187L265.135 47.7413C264.835 48.5081 264.424 49.303 263.9 50.1259C263.395 50.9488 262.75 51.725 261.964 52.4544C261.179 53.1651 260.234 53.7543 259.131 54.2219C258.027 54.6707 256.718 54.8952 255.203 54.8952C253.277 54.8952 251.528 54.5118 249.957 53.7449C248.405 52.9594 247.17 51.884 246.254 50.5187C245.356 49.1347 244.907 47.5636 244.907 45.8055C244.907 44.2158 245.207 42.8037 245.805 41.5693C246.404 40.3349 247.283 39.2969 248.442 38.4553C249.621 37.595 251.089 36.9497 252.847 36.5196C254.605 36.0707 256.643 35.8462 258.963 35.8462H263.648Z" fill="#FF3F4B"/>
</g>
</g>
<defs>
<filter id="filter0_d_1_2" x="13.0455" y="8.45454" width="124.239" height="55.2273" filterUnits="userSpaceOnUse" color-interpolation-filters="sRGB">
<feFlood flood-opacity="0" result="BackgroundImageFix"/>
<feColorMatrix in="SourceAlpha" type="matrix" values="0 0 0 0 0 0 0 0 0 0 0 0 0 0 0 0 0 0 127 0" result="hardAlpha"/>
<feOffset dy="4"/>
<feGaussianBlur stdDeviation="2"/>
<feComposite in2="hardAlpha" operator="out"/>
<feColorMatrix type="matrix" values="0 0 0 0 0 0 0 0 0 0 0 0 0 0 0 0 0 0 0.25 0"/>
<feBlend mode="normal" in2="BackgroundImageFix" result="effect1_dropShadow_1_2"/>
<feBlend mode="normal" in="SourceGraphic" in2="effect1_dropShadow_1_2" result="shape"/>
</filter>
<filter id="filter1_d_1_2" x="130.214" y="5.57143" width="146.21" height="53.1809" filterUnits="userSpaceOnUse" color-interpolation-filters="sRGB">
<feFlood flood-opacity="0" result="BackgroundImageFix"/>
<feColorMatrix in="SourceAlpha" type="matrix" values="0 0 0 0 0 0 0 0 0 0 0 0 0 0 0 0 0 0 127 0" result="hardAlpha"/>
<feOffset dx="-0.642857" dy="-1.28571"/>
<feGaussianBlur stdDeviation="2.57143"/>
<feComposite in2="hardAlpha" operator="out"/>
<feColorMatrix type="matrix" values="0 0 0 0 0 0 0 0 0 0 0 0 0 0 0 0 0 0 0.5 0"/>
<feBlend mode="normal" in2="BackgroundImageFix" result="effect1_dropShadow_1_2"/>
<feBlend mode="normal" in="SourceGraphic" in2="effect1_dropShadow_1_2" result="shape"/>
</filter>
<clipPath id="clip0_1_2">
<rect width="288" height="64" fill="white"/>
</clipPath>
</defs>
</svg>
